<mxfile host="65bd71144e">
    <diagram id="aw-ut9na6uxXYLYZErwH" name="PÃ¡gina-1">
        <mxGraphModel dx="2163" dy="767" grid="1" gridSize="10" guides="1" tooltips="1" connect="1" arrows="1" fold="1" page="1" pageScale="1" pageWidth="827" pageHeight="1169" math="0" shadow="0">
            <root>
                <mxCell id="0"/>
                <mxCell id="1" parent="0"/>
                <mxCell id="4" value="" style="edgeStyle=none;html=1;" edge="1" parent="1" source="2" target="3">
                    <mxGeometry relative="1" as="geometry"/>
                </mxCell>
                <mxCell id="2" value="inicio&amp;nbsp;" style="ellipse;whiteSpace=wrap;html=1;fillColor=#60a917;fontColor=#ffffff;strokeColor=#2D7600;" vertex="1" parent="1">
                    <mxGeometry x="354" width="120" height="80" as="geometry"/>
                </mxCell>
                <mxCell id="7" value="" style="edgeStyle=none;html=1;" edge="1" parent="1" source="3" target="6">
                    <mxGeometry relative="1" as="geometry"/>
                </mxCell>
                <mxCell id="3" value="x" style="shape=parallelogram;perimeter=parallelogramPerimeter;whiteSpace=wrap;html=1;fixedSize=1;fillColor=#6a00ff;fontColor=#ffffff;strokeColor=#3700CC;" vertex="1" parent="1">
                    <mxGeometry x="354" y="110" width="120" height="60" as="geometry"/>
                </mxCell>
                <mxCell id="9" value="" style="edgeStyle=none;html=1;" edge="1" parent="1" source="6" target="8">
                    <mxGeometry relative="1" as="geometry"/>
                </mxCell>
                <mxCell id="6" value="genera un numero aleatorio&amp;nbsp;" style="whiteSpace=wrap;html=1;fillColor=#f0a30a;fontColor=#000000;strokeColor=#BD7000;" vertex="1" parent="1">
                    <mxGeometry x="354" y="200" width="120" height="60" as="geometry"/>
                </mxCell>
                <mxCell id="11" value="" style="edgeStyle=none;html=1;entryX=0.5;entryY=0;entryDx=0;entryDy=0;" edge="1" parent="1" source="8" target="23">
                    <mxGeometry relative="1" as="geometry">
                        <mxPoint x="840" y="370" as="targetPoint"/>
                        <Array as="points">
                            <mxPoint x="840" y="330"/>
                        </Array>
                    </mxGeometry>
                </mxCell>
                <mxCell id="14" value="" style="edgeStyle=none;html=1;" edge="1" parent="1" source="8" target="13">
                    <mxGeometry relative="1" as="geometry">
                        <Array as="points">
                            <mxPoint x="240" y="330"/>
                        </Array>
                    </mxGeometry>
                </mxCell>
                <mxCell id="8" value="x==numero&lt;br&gt;generado&amp;nbsp;" style="rhombus;whiteSpace=wrap;html=1;fillColor=#e3c800;fontColor=#000000;strokeColor=#B09500;" vertex="1" parent="1">
                    <mxGeometry x="374" y="290" width="80" height="80" as="geometry"/>
                </mxCell>
                <mxCell id="16" value="" style="edgeStyle=none;html=1;entryX=0.5;entryY=0;entryDx=0;entryDy=0;" edge="1" parent="1" source="13" target="21">
                    <mxGeometry relative="1" as="geometry">
                        <mxPoint x="474" y="525" as="targetPoint"/>
                        <Array as="points">
                            <mxPoint x="474" y="470"/>
                        </Array>
                    </mxGeometry>
                </mxCell>
                <mxCell id="18" value="" style="edgeStyle=none;html=1;entryX=0.5;entryY=0;entryDx=0;entryDy=0;" edge="1" parent="1" source="13" target="19">
                    <mxGeometry relative="1" as="geometry">
                        <mxPoint x="-50" y="525" as="targetPoint"/>
                        <Array as="points">
                            <mxPoint x="-50" y="470"/>
                        </Array>
                    </mxGeometry>
                </mxCell>
                <mxCell id="13" value="x&amp;lt;numero generado" style="rhombus;whiteSpace=wrap;html=1;fillColor=#e3c800;fontColor=#000000;strokeColor=#B09500;" vertex="1" parent="1">
                    <mxGeometry x="200" y="430" width="80" height="80" as="geometry"/>
                </mxCell>
                <mxCell id="19" value="el numero es menor" style="shape=document;whiteSpace=wrap;html=1;boundedLbl=1;fillColor=#d80073;fontColor=#ffffff;strokeColor=#A50040;" vertex="1" parent="1">
                    <mxGeometry x="-110" y="530" width="120" height="80" as="geometry"/>
                </mxCell>
                <mxCell id="21" value="el numero es mayor&amp;nbsp;" style="shape=document;whiteSpace=wrap;html=1;boundedLbl=1;fillColor=#d80073;fontColor=#ffffff;strokeColor=#A50040;" vertex="1" parent="1">
                    <mxGeometry x="414" y="530" width="120" height="80" as="geometry"/>
                </mxCell>
                <mxCell id="23" value="acerto el numero&amp;nbsp;" style="shape=document;whiteSpace=wrap;html=1;boundedLbl=1;fillColor=#d80073;fontColor=#ffffff;strokeColor=#A50040;" vertex="1" parent="1">
                    <mxGeometry x="780" y="430" width="120" height="80" as="geometry"/>
                </mxCell>
                <mxCell id="25" value="" style="endArrow=none;html=1;exitX=0.444;exitY=0.974;exitDx=0;exitDy=0;exitPerimeter=0;" edge="1" parent="1" source="19">
                    <mxGeometry width="50" height="50" relative="1" as="geometry">
                        <mxPoint x="490" y="770" as="sourcePoint"/>
                        <mxPoint x="850" y="880" as="targetPoint"/>
                        <Array as="points">
                            <mxPoint x="-57" y="880"/>
                        </Array>
                    </mxGeometry>
                </mxCell>
                <mxCell id="26" value="" style="endArrow=none;html=1;entryX=0.571;entryY=0.852;entryDx=0;entryDy=0;entryPerimeter=0;" edge="1" parent="1" target="23">
                    <mxGeometry width="50" height="50" relative="1" as="geometry">
                        <mxPoint x="850" y="880" as="sourcePoint"/>
                        <mxPoint x="540" y="720" as="targetPoint"/>
                    </mxGeometry>
                </mxCell>
                <mxCell id="27" value="" style="endArrow=none;html=1;entryX=0.521;entryY=0.866;entryDx=0;entryDy=0;entryPerimeter=0;" edge="1" parent="1" target="21">
                    <mxGeometry width="50" height="50" relative="1" as="geometry">
                        <mxPoint x="477" y="880" as="sourcePoint"/>
                        <mxPoint x="540" y="720" as="targetPoint"/>
                    </mxGeometry>
                </mxCell>
                <mxCell id="28" value="" style="endArrow=none;html=1;entryX=0.5;entryY=0;entryDx=0;entryDy=0;" edge="1" parent="1" target="29">
                    <mxGeometry width="50" height="50" relative="1" as="geometry">
                        <mxPoint x="560" y="880" as="sourcePoint"/>
                        <mxPoint x="570" y="880" as="targetPoint"/>
                    </mxGeometry>
                </mxCell>
                <mxCell id="29" value="fin" style="ellipse;whiteSpace=wrap;html=1;fillColor=#60a917;fontColor=#ffffff;strokeColor=#2D7600;" vertex="1" parent="1">
                    <mxGeometry x="500" y="990" width="120" height="80" as="geometry"/>
                </mxCell>
            </root>
        </mxGraphModel>
    </diagram>
</mxfile>